<svg width="64" height="64" viewBox="0 0 6528 6528" xmlns="http://www.w3.org/2000/svg">
<path id="shape_0" d="M 3978 6528 C 3978 6528 4488 5406 5304 5202 C 6120 4998 6528 4998 6528 4998 C 6528 4998 4488 4080 4488 4080 C 4488 4080 3570 6324 3570 6324 C 3570 6324 3978 6528 3978 6528 Z " style="fill:#010101;stroke:none;fill-opacity:0.45;" />
<path id="shape_1" d="M 3468 6324 C 3468 6324 4123 5748 4284 5508 C 4692 4896 5403 3241 5867 2221 C 6080 1751 6324 1428 6324 1428 C 6324 1428 2856 612 2856 612 C 2856 612 2177 2257 1428 3468 C 885 4344 204 4896 204 4896 C 204 4896 3468 6324 3468 6324 Z " style="stroke-width:408;stroke-linejoin:miter;stroke-linecap:butt;stroke:#010101;fill:none;" />
<g>
<defs>
<linearGradient id="id1" gradientUnits="userSpaceOnUse" gradientTransform="matrix(0.136413,-0.358192,0.934521,0.3559,107.23,1900.45)" x1="-6528" x2="6528" y1="-6528" y2="-6528">
<stop offset="0%" stop-color="#f6d177" />
<stop offset="16.47%" stop-color="#ffdc89" />
<stop offset="100%" stop-color="#e3b043" />
</linearGradient>
</defs>
<path id="shape_2" d="M 3468 6324 C 3468 6324 4123 5748 4284 5508 C 4692 4896 5403 3241 5867 2221 C 6080 1751 6324 1428 6324 1428 C 6324 1428 2856 612 2856 612 C 2856 612 2177 2257 1428 3468 C 885 4344 204 4896 204 4896 C 204 4896 3468 6324 3468 6324 Z " style="fill:url(#id1);stroke:none;" />
</g>
<path id="shape_3" d="M 816 4386 C 816 4386 1224 4386 1224 4386 C 1224 4386 1632 4080 1632 4080 C 1632 4080 1530 4488 1530 4488 C 1530 4488 1836 4896 1836 4896 C 1836 4896 1428 4794 1428 4794 C 1428 4794 956 5151 956 5151 C 956 5151 1122 4692 1122 4692 C 1122 4692 816 4386 816 4386 Z M 1122 4284 C 1122 4284 1224 4182 1224 4182 C 1224 4182 1530 4998 1530 4998 C 1530 4998 1428 4998 1428 4998 C 1428 4998 1122 4284 1122 4284 Z " style="fill:#ae0303;stroke:none;" />
<path id="shape_4" d="M 1639.31 4397.36 C 1639.31 4397.36 1737.49 4503.04 1737.49 4503.04 C 1737.49 4503.04 910.81 4778.88 910.81 4778.88 C 910.81 4778.88 914.56 4676.95 914.56 4676.95 C 914.56 4676.95 1639.31 4397.36 1639.31 4397.36 Z " style="fill:#ae0303;stroke:none;" />
<path id="shape_5" d="M 1833.6 3443.41 C 1833.6 3443.41 1913.96 3923.53 1913.96 3923.53 C 1913.96 3923.53 2098.63 3590.27 2098.63 3590.27 C 2098.63 3590.27 2187.85 3639.71 2187.85 3639.71 C 2187.85 3639.71 1940.66 4085.8 1940.66 4085.8 C 1940.66 4085.8 1847.94 4034.42 1847.94 4034.42 C 1847.94 4034.42 1769.9 3552.17 1769.9 3552.17 C 1769.9 3552.17 1583.78 3888.05 1583.78 3888.05 C 1583.78 3888.05 1494.57 3838.61 1494.57 3838.61 C 1494.57 3838.61 1741.76 3392.52 1741.76 3392.52 C 1741.76 3392.52 1833.6 3443.41 1833.6 3443.41 Z " style="stroke-width:102;stroke-linejoin:miter;stroke-linecap:butt;stroke:#ae0303;fill:none;" />
<path id="shape_6" d="M 1734 5202 C 1734 5202 3468 5916 3468 5916 C 3468 5916 3570 5712 3570 5712 C 3570 5712 1836 4998 1836 4998 C 1836 4998 1734 5202 1734 5202 Z " style="fill:#535353;stroke:none;" />
<path id="shape_7" d="M 1938 4794 C 1938 4794 2040 4896 2040 4896 C 2040 4896 1734 5406 1734 5406 C 1734 5406 1632 5304 1632 5304 C 1632 5304 1938 4794 1938 4794 Z " style="fill:#535353;stroke:none;" />
<path id="shape_8" d="M 2754 5100 C 2754 5100 2856 5202 2856 5202 C 2856 5202 2550 5712 2550 5712 C 2550 5712 2448 5610 2448 5610 C 2448 5610 2754 5100 2754 5100 Z " style="fill:#535353;stroke:none;" />
<path id="shape_9" d="M 3570 5508 C 3570 5508 3672 5610 3672 5610 C 3672 5610 3366 6120 3366 6120 C 3366 6120 3264 6018 3264 6018 C 3264 6018 3570 5508 3570 5508 Z " style="fill:#535353;stroke:none;" />
<g>
<defs>
<linearGradient id="id2" gradientUnits="userSpaceOnUse" gradientTransform="matrix(0.758577,0.676902,-0.654874,0.733893,4417.53,2187.66)" x1="-2443.686164" x2="2443.686164" y1="-2443.686164" y2="-2443.686164">
<stop offset="0%" stop-color="#29c505" />
<stop offset="100%" stop-color="#146002" />
</linearGradient>
</defs>
<mask id="id3" maskUnits="userSpaceOnUse" x="0" y="0" width="6528" height="6528">
<path d="M 3472.94 3810.63 C 3472.94 3810.63 2893.25 4674.33 2893.25 4674.33 C 2893.25 4674.33 2516.47 4517.82 2516.47 4517.82 C 2516.47 4517.82 3096.15 3654.12 3096.15 3654.12 C 3096.15 3654.12 2175.68 3211.11 2175.68 3211.11 C 2175.68 3211.11 2293.07 2928.52 2293.07 2928.52 C 2293.07 2928.52 3213.54 3371.53 3213.54 3371.53 C 3213.54 3371.53 3261.88 3255.17 3261.88 3255.17 C 3261.88 3255.17 3313.15 2860.65 3313.15 2860.65 C 3313.15 2860.65 2488.71 2457.54 2488.71 2457.54 C 2488.71 2457.54 2606.1 2174.96 2606.1 2174.96 C 2606.1 2174.96 3276.31 2514 3276.31 2514 C 3276.31 2514 3093.3 1002.12 3093.3 1002.12 C 3093.3 1002.12 3614.14 1218.49 3614.14 1218.49 C 3614.14 1218.49 3728.36 2919.44 3728.36 2919.44 C 3728.36 2919.44 5193.07 1653.48 5193.07 1653.48 C 5193.07 1653.48 5736.33 1818.51 5736.33 1818.51 C 5736.33 1818.51 4337.4 2954.78 4337.4 2954.78 C 4337.4 2954.78 4939.51 3204.9 4939.51 3204.9 C 4939.51 3204.9 4822.13 3487.49 4822.13 3487.49 C 4822.13 3487.49 4066.71 3173.69 4066.71 3173.69 C 4066.71 3173.69 3634.04 3409.77 3634.04 3409.77 C 3634.04 3409.77 3585.71 3526.13 3585.71 3526.13 C 3585.71 3526.13 4532.28 3919.34 4532.28 3919.34 C 4532.28 3919.34 4397.25 4244.41 4397.25 4244.41 C 4397.25 4244.41 3472.94 3810.63 3472.94 3810.63 Z " style="stroke-width:204;stroke-linejoin:miter;stroke-linecap:butt;stroke:white;fill:white;" />
</mask>
<rect x="0" y="0" width="6528" height="6528" fill="url(#id2)" mask="url(#id3)" />
</g>
<path id="shape_11" d="M 3472.94 3810.63 C 3472.94 3810.63 2893.25 4674.33 2893.25 4674.33 C 2893.25 4674.33 2516.47 4517.82 2516.47 4517.82 C 2516.47 4517.82 3096.15 3654.12 3096.15 3654.12 C 3096.15 3654.12 2175.68 3211.11 2175.68 3211.11 C 2175.68 3211.11 2293.07 2928.52 2293.07 2928.52 C 2293.07 2928.52 3213.54 3371.53 3213.54 3371.53 C 3213.54 3371.53 3261.88 3255.17 3261.88 3255.17 C 3261.88 3255.17 3313.15 2860.65 3313.15 2860.65 C 3313.15 2860.65 2488.71 2457.54 2488.71 2457.54 C 2488.71 2457.54 2606.1 2174.96 2606.1 2174.96 C 2606.1 2174.96 3276.31 2514 3276.31 2514 C 3276.31 2514 3093.3 1002.12 3093.3 1002.12 C 3093.3 1002.12 3614.14 1218.49 3614.14 1218.49 C 3614.14 1218.49 3728.36 2919.44 3728.36 2919.44 C 3728.36 2919.44 5193.07 1653.48 5193.07 1653.48 C 5193.07 1653.48 5736.33 1818.51 5736.33 1818.51 C 5736.33 1818.51 4337.4 2954.78 4337.4 2954.78 C 4337.4 2954.78 4939.51 3204.9 4939.51 3204.9 C 4939.51 3204.9 4822.13 3487.49 4822.13 3487.49 C 4822.13 3487.49 4066.71 3173.69 4066.71 3173.69 C 4066.71 3173.69 3634.04 3409.77 3634.04 3409.77 C 3634.04 3409.77 3585.71 3526.13 3585.71 3526.13 C 3585.71 3526.13 4532.28 3919.34 4532.28 3919.34 C 4532.28 3919.34 4397.25 4244.41 4397.25 4244.41 C 4397.25 4244.41 3472.94 3810.63 3472.94 3810.63 Z " style="stroke-width:204;stroke-linejoin:miter;stroke-linecap:butt;stroke:#010101;fill:none;stroke-opacity:0.45;" />
<g>
<defs>
<linearGradient id="id4" gradientUnits="userSpaceOnUse" gradientTransform="matrix(0.960211,0.334108,-0.323235,0.928967,4329.72,1254.83)" x1="-2443.694841" x2="2443.694841" y1="-2443.694841" y2="-2443.694841">
<stop offset="0%" stop-color="#29c505" />
<stop offset="100%" stop-color="#146002" />
</linearGradient>
</defs>
<path id="shape_12" d="M 4194 1083 C 4488 1109 4653 1185 4653 1185 C 4653 1185 4679 1338 4602 1555 C 4526 1772 4271 1708 4271 1708 C 4271 1708 4233 1734 4118 1568 C 4003 1402 3978 1134 3978 1134 C 3978 1134 3901 1058 4194 1083 Z " style="fill:url(#id4);stroke:none;" />
</g>
<path id="shape_13" d="M 4194 1083 C 4488 1109 4653 1185 4653 1185 C 4653 1185 4679 1338 4602 1555 C 4526 1772 4271 1708 4271 1708 C 4271 1708 4233 1734 4118 1568 C 4003 1402 3978 1134 3978 1134 C 3978 1134 3901 1058 4194 1083 Z " style="stroke-width:102;stroke-linejoin:miter;stroke-linecap:butt;stroke:#010101;fill:none;stroke-opacity:0.45;" />
<g>
<defs>
<linearGradient id="id5" gradientUnits="userSpaceOnUse" gradientTransform="matrix(1.024034,-0.328538,0.207448,0.909975,5245.26,2695.8)" x1="-1530.19791" x2="1530.19791" y1="-1530.19791" y2="-1530.19791">
<stop offset="0%" stop-color="#29c505" />
<stop offset="100%" stop-color="#146002" />
</linearGradient>
</defs>
<path id="shape_14" d="M 5113.25 2664.99 C 5284.26 2565.32 5400.62 2538.91 5400.62 2538.91 C 5400.62 2538.91 5465.77 2602.53 5495.29 2736.2 C 5525.36 2869.49 5363.28 2936.01 5363.28 2936.01 C 5363.28 2936.01 5350.92 2963 5232.3 2927.09 C 5113.68 2891.17 5010.89 2771.9 5010.89 2771.9 C 5010.89 2771.9 4943.13 2764.75 5113.25 2664.99 Z " style="fill:url(#id5);stroke:none;" />
</g>
<g>
<defs>
<linearGradient id="id6" gradientUnits="userSpaceOnUse" gradientTransform="matrix(0.331859,0.387972,-0.518462,0.172759,3855.68,4795.28)" x1="-6528" x2="6528" y1="-6528" y2="-6528">
<stop offset="0%" stop-color="#29c505" />
<stop offset="100%" stop-color="#146002" />
</linearGradient>
</defs>
<path id="shape_15" d="M 3860.38 4551.82 C 4211.42 4809.79 4344.37 5002.35 4344.37 5002.35 C 4344.37 5002.35 4218.18 5142.43 3892.73 5249.02 C 3568.57 5356.42 3307.34 5100.43 3307.34 5100.43 C 3307.34 5100.43 3231.33 5089.93 3256.6 4867.77 C 3281.88 4645.61 3529.33 4416.85 3529.33 4416.85 C 3529.33 4416.85 3509.58 4295.45 3860.38 4551.82 Z " style="fill:url(#id6);stroke:none;" />
</g>
<path id="shape_16" d="M 3860.38 4551.82 C 4211.42 4809.79 4344.37 5002.35 4344.37 5002.35 C 4344.37 5002.35 4218.18 5142.43 3892.73 5249.02 C 3568.57 5356.42 3307.34 5100.43 3307.34 5100.43 C 3307.34 5100.43 3231.33 5089.93 3256.6 4867.77 C 3281.88 4645.61 3529.33 4416.85 3529.33 4416.85 C 3529.33 4416.85 3509.58 4295.45 3860.38 4551.82 Z " style="stroke-width:154.97;stroke-linejoin:miter;stroke-linecap:butt;stroke:#010101;fill:none;stroke-opacity:0.45;" />
</svg>