<svg width="64" height="64" viewBox="0 0 6528 6528" xmlns="http://www.w3.org/2000/svg">
<path id="shape_0" d="M 1020 5304 C 1020 5304 2244 5304 2244 5304 C 2244 5304 2754 6426 2754 6426 C 2754 6426 3672 6426 3876 6120 C 4080 6120 4284 6120 4284 5916 C 4284 5916 4488 6528 5100 6528 C 5712 6528 5712 6018 5712 5814 C 6222 5814 6324 4896 5916 4488 C 5508 4080 4488 3264 4182 3264 " style="fill:#010101;stroke:none" fill-opacity="0.4" />
<path id="shape_1" d="M 4284 4080 C 4692 4080 4896 4794 4692 4998 C 4692 5202 4488 5304 4080 5304 C 4080 5304 4080 4998 4386 4998 C 4284 4896 4284 4896 4284 4896 C 4284 4896 4488 4896 4488 4896 C 4692 4896 4590 4284 4182 4284 C 4080 4284 4182 4080 4284 4080 Z " style="fill:none;stroke:#010101;stroke-width:408;stroke-linejoin:miter;stroke-linecap:butt" />
<path id="shape_2" d="M 1224 3570 C 1224 3570 816 3570 612 3060 C 612 2754 816 2448 1020 2448 C 1020 2448 1428 2652 1428 2652 " style="fill:none;stroke:#010101;stroke-width:408;stroke-linejoin:miter;stroke-linecap:butt" />
<g>
<defs>
<linearGradient id="grad1" gradientUnits="userSpaceOnUse" gradientTransform="matrix(0.485419,0.296459,-0.916356,1.50043,3963.66,473.08)" x1="-3074.855632" x2="3074.855632" y1="-3074.855632" y2="-3074.855632">
<stop offset="0.00%" stop-color="#ffe6b3" />
<stop offset="100.00%" stop-color="#ffb365" />
</linearGradient>
</defs>
<path id="shape_3" d="M 1224 3570 C 1224 3570 816 3570 612 3060 C 612 2754 816 2448 1020 2448 C 1020 2448 1428 2652 1428 2652 M 1224 3366 C 1224 3366 918 3264 714 3060 C 714 3060 714 2550 1020 2448 C 816 2448 612 2754 612 3060 C 816 3570 1224 3570 1224 3570 " style="fill:url(#grad1);stroke:none" />
</g>
<g>
<defs>
<linearGradient id="grad2" gradientUnits="userSpaceOnUse" gradientTransform="matrix(0.610639,0.443403,-0.778598,1.072265,3549.83,2386.83)" x1="-2386.17951" x2="2386.17951" y1="-2386.17951" y2="-2386.17951">
<stop offset="0.00%" stop-color="#e6ad73" />
<stop offset="100.00%" stop-color="#b3805a" />
</linearGradient>
</defs>
<path id="shape_4" d="M 1224 3366 C 1224 3366 918 3264 714 3060 C 714 3060 714 2550 1020 2448 C 816 2448 612 2754 612 3060 C 816 3570 1224 3570 1224 3570 " style="fill:url(#grad2);stroke:none" />
</g>
<path id="shape_5" d="M 2652 1224 C 1428 1224 1326 3162 1326 3672 C 1122 3774 612 4080 612 4080 C 612 4080 408 4284 612 4692 C 816 5100 1020 5100 1020 5100 C 1020 5100 1836 4488 2448 4896 C 2448 4896 2142 5712 2142 5712 C 2142 5712 2040 5916 2448 6120 C 2856 6323 3060 6120 3060 6120 C 3060 6120 4284 4080 4284 4080 C 4284 4080 3978 2856 3774 2652 C 4080 3162 4386 2958 4284 2754 C 4488 2958 4896 2856 4896 2652 C 4896 2448 4080 1224 3468 1836 C 3366 1428 3162 1224 2652 1224 Z " style="fill:none;stroke:#010101;stroke-width:408;stroke-linejoin:miter;stroke-linecap:butt" />
<g>
<defs>
<linearGradient id="grad3" gradientUnits="userSpaceOnUse" gradientTransform="matrix(0.485419,0.296459,-0.916356,1.50043,3963.66,473.08)" x1="-3074.855632" x2="3074.855632" y1="-3074.855632" y2="-3074.855632">
<stop offset="0.00%" stop-color="#ffe6b3" />
<stop offset="100.00%" stop-color="#ffb365" />
</linearGradient>
</defs>
<path id="shape_6" d="M 2652 1224 C 1428 1224 1326 3162 1326 3672 C 1122 3774 612 4080 612 4080 C 612 4080 408 4284 612 4692 C 816 5100 1020 5100 1020 5100 C 1020 5100 1836 4488 2448 4896 C 2448 4896 2142 5712 2142 5712 C 2142 5712 2040 5916 2448 6120 C 2856 6323 3060 6120 3060 6120 C 3060 6120 4284 4080 4284 4080 C 4284 4080 3978 2856 3774 2652 C 4080 3162 4386 2958 4284 2754 C 4488 2958 4896 2856 4896 2652 C 4896 2448 4080 1224 3468 1836 C 3366 1428 3162 1224 2652 1224 Z M 4284 4080 C 4284 4080 3060 6120 3060 6120 C 3060 6120 2856 6323 2448 6120 C 2040 5916 2142 5712 2142 5712 C 2142 5712 2448 5609 2652 5712 C 2756 5763 3774 3876 3774 3876 C 3774 3876 3570 2958 3774 2652 C 3978 2856 4284 4080 4284 4080 Z M 2448 4896 C 1836 4488 1020 5100 1020 5100 C 1020 5100 816 5100 612 4692 C 408 4284 612 4080 612 4080 C 816 3876 1224 4692 1326 4590 C 1530 4386 2448 4386 2652 4386 C 2652 4386 2448 4896 2448 4896 Z " style="fill:url(#grad3);stroke:none" />
</g>
<g>
<defs>
<linearGradient id="grad4" gradientUnits="userSpaceOnUse" gradientTransform="matrix(0.610639,0.443403,-0.778598,1.072265,3549.83,2386.83)" x1="-2386.17951" x2="2386.17951" y1="-2386.17951" y2="-2386.17951">
<stop offset="0.00%" stop-color="#e6ad73" />
<stop offset="100.00%" stop-color="#b3805a" />
</linearGradient>
</defs>
<path id="shape_7" d="M 4284 4080 C 4284 4080 3060 6120 3060 6120 C 3060 6120 2856 6323 2448 6120 C 2040 5916 2142 5712 2142 5712 C 2142 5712 2448 5609 2652 5712 C 2756 5763 3774 3876 3774 3876 C 3774 3876 3570 2958 3774 2652 C 3978 2856 4284 4080 4284 4080 Z M 2448 4896 C 1836 4488 1020 5100 1020 5100 C 1020 5100 816 5100 612 4692 C 408 4284 612 4080 612 4080 C 816 3876 1224 4692 1326 4590 C 1530 4386 2448 4386 2652 4386 C 2652 4386 2448 4896 2448 4896 Z M 1530 2856 C 1530 3264 2244 3672 2448 3672 C 2448 3672 3162 2958 3162 2754 C 3162 2550 2856 2652 2652 2448 M 4284 2142 C 4488 2346 4590 2550 4590 2550 C 4590 2550 4488 2652 4182 2652 C 4182 2652 4182 2754 4080 2754 C 3672 2754 3774 2244 3468 2244 C 3672 2040 4080 1938 4284 2142 Z " style="fill:url(#grad4);stroke:none" />
</g>
<path id="shape_8" d="M 2856 1836 C 2856 1836 2856 2244 2856 2244 " style="fill:none;stroke:#010101;stroke-width:204;stroke-linejoin:round;stroke-linecap:round" />
<path id="shape_9" d="M 1938 1836 C 1734 1836 1632 1836 1632 1020 C 1632 1020 2040 1020 2040 816 C 2040 612 1632 612 1632 612 C 1632 612 1632 408 1428 408 C 1224 408 1224 612 1428 816 C 1224 1020 1020 1224 1020 1632 C 1020 1965 1326 2856 2142 2856 " style="fill:none;stroke:#010101;stroke-width:408;stroke-linejoin:miter;stroke-linecap:butt" />
<g>
<defs>
<linearGradient id="grad5" gradientUnits="userSpaceOnUse" gradientTransform="matrix(0.485419,0.296459,-0.916356,1.50043,3963.66,473.08)" x1="-3074.855632" x2="3074.855632" y1="-3074.855632" y2="-3074.855632">
<stop offset="0.00%" stop-color="#ffe6b3" />
<stop offset="100.00%" stop-color="#ffb365" />
</linearGradient>
</defs>
<path id="shape_10" d="M 1938 1836 C 1734 1836 1632 1836 1632 1020 C 1632 1020 2040 1020 2040 816 C 2040 612 1632 612 1632 612 C 1632 612 1632 408 1428 408 C 1224 408 1224 612 1428 816 C 1224 1020 1020 1224 1020 1632 C 1020 1965 1326 2856 2142 2856 M 1938 2142 C 1122 2040 1530 918 1530 918 C 1530 918 2040 1020 2040 816 C 2040 1020 1632 1020 1632 1020 C 1632 1836 1734 1836 1938 1836 C 1938 1836 1938 2142 1938 2142 Z " style="fill:url(#grad5);stroke:none" />
</g>
<g>
<defs>
<linearGradient id="grad6" gradientUnits="userSpaceOnUse" gradientTransform="matrix(0.610639,0.443403,-0.778598,1.072265,3549.83,2386.83)" x1="-2386.17951" x2="2386.17951" y1="-2386.17951" y2="-2386.17951">
<stop offset="0.00%" stop-color="#e6ad73" />
<stop offset="100.00%" stop-color="#b3805a" />
</linearGradient>
</defs>
<path id="shape_11" d="M 1938 2142 C 1122 2040 1530 918 1530 918 C 1530 918 2040 1020 2040 816 C 2040 1020 1632 1020 1632 1020 C 1632 1836 1734 1836 1938 1836 C 1938 1836 1938 2142 1938 2142 Z " style="fill:url(#grad6);stroke:none" />
</g>
<path id="shape_12" d="M 2448 2652 C 2448 2448 2244 2652 1938 2346 C 1632 2040 1938 1734 1836 1734 C 1734 1734 1632 1836 1632 2040 C 1632 2856 2448 2856 2448 2652 Z " transform="matrix(0.916698 0.000000 0.000000 1.000000 322.94 102.00)" style="fill:none;stroke:#010101;stroke-width:408;stroke-linejoin:miter;stroke-linecap:butt" />
<path id="shape_13" d="M 2448 2652 C 2448 2448 2244 2652 1938 2346 C 1632 2040 1938 1734 1836 1734 C 1734 1734 1632 1836 1632 2040 C 1632 2856 2448 2856 2448 2652 Z " transform="matrix(1.000000 0.000000 0.000000 1.000000 204.00 102.00)" style="fill:#ffffff;stroke:none" />
<path id="shape_14" d="M 2244 2652 C 2244 2754 1632 2856 1632 2040 C 1836 2040 1734 2244 1938 2448 C 2142 2652 2244 2550 2244 2652 Z " transform="matrix(1.000000 0.000000 0.000000 1.000000 204.00 102.00)" style="fill:#010101;stroke:none" fill-opacity="0.4" />
<path id="shape_15" d="M 2652 3264 C 2652 3264 2652 4080 2448 4284 C 2448 4284 2346 4488 2754 4692 C 3162 4896 3264 4692 3264 4692 C 3264 4692 3774 4080 3672 3264 " transform="matrix(1.000000 0.000000 0.000000 0.893974 0.00 528.88)" style="fill:none;stroke:#010101;stroke-width:408;stroke-linejoin:round;stroke-linecap:round" />
<g>
<defs>
<linearGradient id="grad7" gradientUnits="userSpaceOnUse" gradientTransform="matrix(0.485419,0.296459,-0.916356,1.50043,3963.66,473.08)" x1="-3074.855632" x2="3074.855632" y1="-3074.855632" y2="-3074.855632">
<stop offset="0.00%" stop-color="#ffe6b3" />
<stop offset="100.00%" stop-color="#ffb365" />
</linearGradient>
</defs>
<path id="shape_16" d="M 2652 3264 C 2652 3264 2652 4080 2448 4284 C 2448 4284 2346 4488 2754 4692 C 3162 4896 3264 4692 3264 4692 C 3264 4692 3774 4080 3672 3264 M 3672 3264 C 3774 4080 3264 4692 3264 4692 C 3264 4692 3162 4896 2754 4692 C 2346 4488 2448 4284 2448 4284 C 2448 4284 2346 4386 2754 4590 C 3162 4794 3672 3264 3672 3264 Z " style="fill:url(#grad7);stroke:none" />
</g>
<g>
<defs>
<linearGradient id="grad8" gradientUnits="userSpaceOnUse" gradientTransform="matrix(0.610639,0.443403,-0.778598,1.072265,3549.83,2386.83)" x1="-2386.17951" x2="2386.17951" y1="-2386.17951" y2="-2386.17951">
<stop offset="0.00%" stop-color="#e6ad73" />
<stop offset="100.00%" stop-color="#b3805a" />
</linearGradient>
</defs>
<path id="shape_17" d="M 3672 3264 C 3774 4080 3264 4692 3264 4692 C 3264 4692 3162 4896 2754 4692 C 2346 4488 2448 4284 2448 4284 C 2448 4284 2346 4386 2754 4590 C 3162 4794 3672 3264 3672 3264 Z " style="fill:url(#grad8);stroke:none" />
</g>
<g>
<defs>
<linearGradient id="grad9" gradientUnits="userSpaceOnUse" gradientTransform="matrix(0.610639,0.443403,-0.778598,1.072265,3549.83,2386.83)" x1="-2386.17951" x2="2386.17951" y1="-2386.17951" y2="-2386.17951">
<stop offset="0.00%" stop-color="#e6ad73" />
<stop offset="100.00%" stop-color="#b3805a" />
</linearGradient>
</defs>
<path id="shape_18" d="M 4284 4080 C 4692 4080 4896 4794 4692 4998 C 4692 5202 4488 5304 4080 5304 C 4080 5304 4080 4998 4386 4998 C 4284 4896 4284 4896 4284 4896 C 4284 4896 4488 4896 4488 4896 C 4692 4896 4590 4284 4182 4284 C 4080 4284 4182 4080 4284 4080 Z " style="fill:url(#grad9);stroke:none" />
</g>
</svg>