<?xml version="1.0" encoding="UTF-8"?><svg id="i563190472" width="64" height="64" viewBox="0 0 6528 6528" xmlns="http://www.w3.org/2000/svg"><path d="M 5304 4896 L 6528 5304 5304 6324 4080 6324" style="stroke-width:0;stroke-linejoin:miter;stroke-linecap:butt;fill:#000000;stroke:none;fill-opacity:0.43;"/><path d="M 1632 408 L 408 1020 408 4896 4080 6120 5100 5304 5100 1326 Z" style="stroke-width:408;stroke-linejoin:round;stroke-linecap:butt;stroke:#010101;fill:none;"/><g><linearGradient id="i563190472-2-g" gradientUnits="userSpaceOnUse" gradientTransform="matrix(0.434359,0.434359,-0.707104,0.707104,5571.97,956)" x1="-6528" x2="6528" y1="-6528" y2="-6528"><stop offset="0%" stop-color="#dfe5f3"/><stop offset="100%" stop-color="#bec3d1"/></linearGradient><path d="M 408 1020 L 1632 408 5100 1326 4080 2040 Z M 1632 408 L 408 1020 408 4896 4080 6120 5100 5304 5100 1326 Z M 4080 2040 L 5100 1326 5100 5304 4080 6120 Z" style="stroke-width:0;stroke-linejoin:miter;stroke-linecap:butt;fill:url(#i563190472-2-g);stroke:none;"/></g><g><linearGradient id="i563190472-3-g" gradientUnits="userSpaceOnUse" gradientTransform="matrix(-0.384324,-0.29991,1.261976,-1.617181,3116.99,7053.89)" x1="-3182.35295" x2="3182.35295" y1="-3182.35295" y2="-3182.35295"><stop offset="0%" stop-color="#56618a"/><stop offset="100%" stop-color="#222c54"/></linearGradient><path d="M 4080 2040 L 5100 1326 5100 5304 4080 6120 Z" style="stroke-width:0;stroke-linejoin:miter;stroke-linecap:butt;fill:url(#i563190472-3-g);stroke:none;"/></g><g><linearGradient id="i563190472-4-g" gradientUnits="userSpaceOnUse" gradientTransform="matrix(0.093079,0.400714,-2.367791,0.550001,6245.73,450.47)" x1="-2685.494761" x2="2685.494761" y1="-2685.494761" y2="-2685.494761"><stop offset="0%" stop-color="#9eaed9"/><stop offset="100%" stop-color="#4962aa"/></linearGradient><path d="M 408 1020 L 1632 408 5100 1326 4080 2040 Z" style="stroke-width:0;stroke-linejoin:miter;stroke-linecap:butt;fill:url(#i563190472-4-g);stroke:none;"/></g><g><mask id="i563190472-5-m" maskUnits="userSpaceOnUse" x="0" y="0" width="6528" height="6528"><path d="M 658.06 1506.24 L 1163.61 1649.67 1163.61 2489.24 1935.76 2717.52 1935.76 1868.76 3804.93 2399.1 3804.93 4721.79 1935.76 4132.11 1935.76 3283.35 1163.61 3048.95 1163.61 3888.52 658.06 3729.03 Z" style="stroke-width:102;stroke-linejoin:round;stroke-linecap:butt;stroke:white;fill:white;"/></mask><rect x="0" y="0" width="6528" height="6528" fill="#314177" mask="url(#i563190472-5-m)" fill-opacity="0.98"/></g><g><mask id="i563190472-6-m" maskUnits="userSpaceOnUse" x="0" y="0" width="6528" height="6528"><path d="M 3531.92 3623.28 L 2459.99 3300 2459.99 3727.5 3531.92 4057.16 3531.92 4346.41 2196.91 3930.55 2196.91 2936.7 3260.95 3253.38 3260.95 2821.11 2196.91 2510.77 2196.91 2226.81 3531.92 2610.89 Z" style="stroke-width:102;stroke-linejoin:round;stroke-linecap:butt;stroke:white;fill:white;"/></mask><rect x="0" y="0" width="6528" height="6528" fill="#ffffff" mask="url(#i563190472-6-m)"/></g><g><linearGradient id="i563190472-7-g" gradientUnits="userSpaceOnUse" gradientTransform="matrix(0.554585,0.146804,0,1.803151,2066.1,1197.15)" x1="-2515.032113" x2="2515.032113" y1="-2515.032113" y2="-2515.032113"><stop offset="0%" stop-color="#314177" stop-opacity="0.5"/><stop offset="49.02%" stop-color="#314177"/><stop offset="100%" stop-color="#314177" stop-opacity="0.5"/></linearGradient><path d="M 1676.5 4755.05 L 1935.76 4839.41 1935.76 5122.33 1676.5 5036.94 Z M 1163.61 4588.15 L 1419.12 4671.3 1419.12 4952.17 1163.61 4868.01 Z M 2196.91 4924.39 L 2459.99 5009.99 2459.99 5294.99 2196.91 5208.35 Z M 2725.01 5096.23 L 2991.99 5183.11 2991.99 5470.22 2725.01 5382.28 Z M 3260.95 5270.63 L 3531.92 5358.8 3531.92 5648.05 3260.95 5558.8 Z M 658.06 4423.65 L 909.92 4505.61 909.92 4784.45 658.06 4701.5 Z" style="stroke-width:0;stroke-linejoin:miter;stroke-linecap:butt;fill:url(#i563190472-7-g);stroke:none;"/></g></svg>