<svg width="64" height="64" viewBox="0 0 6528 6528" xmlns="http://www.w3.org/2000/svg">
<path id="shape_0" d="M 4080 4080 C 4080 4080 204 4080 204 4080 C 204 4080 204 203 204 203 C 204 203 3672 203 3672 203 C 3672 203 4080 612 4080 612 C 4080 612 4080 4080 4080 4080 Z " transform="matrix(1.333328 0.000000 0.000000 1.333328 544.00 544.00)" style="fill:none;stroke:#000000;stroke-width:408;stroke-linejoin:round;stroke-linecap:round" stroke-opacity="0.4" />
<path id="shape_1" d="M 4080 4080 C 4080 4080 204 4080 204 4080 C 204 4080 204 203 204 203 C 204 203 3672 203 3672 203 C 3672 203 4080 612 4080 612 C 4080 612 4080 4080 4080 4080 Z " transform="matrix(1.333328 0.000000 0.000000 1.333328 272.00 272.00)" style="fill:none;stroke:#000000;stroke-width:408;stroke-linejoin:round;stroke-linecap:round" />
<g>
<defs>
<linearGradient id="grad1" gradientUnits="userSpaceOnUse" gradientTransform="matrix(0.000000 0.296875 -1.000000 0.000000 6528.00 2142.00)" x1="-6528" x2="6528" y1="-6528" y2="-6528">
<stop offset="0.00%" stop-color="#ababab" />
<stop offset="100.00%" stop-color="#404040" />
</linearGradient>
</defs>
<path id="shape_2" d="M 4080 4080 C 4080 4080 204 4080 204 4080 C 204 4080 204 203 204 203 C 204 203 3672 203 3672 203 C 3672 203 4080 612 4080 612 C 4080 612 4080 4080 4080 4080 Z " transform="matrix(1.333328 0.000000 0.000000 1.333328 272.00 272.00)" style="fill:url(#grad1);stroke:none" />
</g>
<path id="shape_3" d="M 816 2244 C 816 2244 3468 2244 3468 2244 C 3468 2244 3468 4080 3468 4080 C 3468 4080 816 4080 816 4080 C 816 4080 816 2244 816 2244 Z " transform="matrix(1.333328 0.000000 0.000000 1.333328 272.00 272.00)" style="fill:none;stroke:#000000;stroke-width:408;stroke-linejoin:round;stroke-linecap:round" />
<g>
<defs>
<linearGradient id="grad2" gradientUnits="userSpaceOnUse" gradientTransform="matrix(0,0.375,-2.666667,0,6528,3162)" x1="-2448" x2="2448" y1="-2448" y2="-2448">
<stop offset="0.00%" stop-color="#ffffff" />
<stop offset="100.00%" stop-color="#e6e6e6" />
</linearGradient>
</defs>
<path id="shape_4" d="M 816 2244 C 816 2244 3468 2244 3468 2244 C 3468 2244 3468 4080 3468 4080 C 3468 4080 816 4080 816 4080 C 816 4080 816 2244 816 2244 Z " transform="matrix(1.333328 0.000000 0.000000 1.333328 272.00 272.00)" style="fill:url(#grad2);stroke:none" />
</g>
<path id="shape_5" d="M 612 203 C 612 203 1428 203 1428 203 C 1428 203 1428 1632 1428 1632 C 1428 1632 612 1632 612 1632 C 612 1632 612 203 612 203 Z " transform="matrix(1.333328 0.000000 0.000000 1.333328 272.00 272.00)" style="fill:#808080;stroke:none" />
<path id="shape_6" d="M 1428 203 C 1428 203 3468 203 3468 203 C 3468 203 3468 1428 3468 1428 C 3468 1428 1428 1428 1428 1428 C 1428 1428 1428 203 1428 203 Z " transform="matrix(1.333328 0.000000 0.000000 1.333328 272.00 272.00)" style="fill:none;stroke:#000000;stroke-width:408;stroke-linejoin:round;stroke-linecap:round" />
<g>
<defs>
<linearGradient id="grad3" gradientUnits="userSpaceOnUse" gradientTransform="matrix(0,0.306186,-3.265986,0,6528,816)" x1="-1998.78363" x2="1998.78363" y1="-1998.78363" y2="-1998.78363">
<stop offset="0.00%" stop-color="#f7f7f7" />
<stop offset="100.00%" stop-color="#cccccc" />
</linearGradient>
</defs>
<path id="shape_7" d="M 1428 203 C 1428 203 3468 203 3468 203 C 3468 203 3468 1428 3468 1428 C 3468 1428 1428 1428 1428 1428 C 1428 1428 1428 203 1428 203 Z " transform="matrix(1.333328 0.000000 0.000000 1.333328 272.00 272.00)" style="fill:url(#grad3);stroke:none" />
</g>
<path id="shape_8" d="M 2652 408 C 2652 408 3060 408 3060 408 C 3060 408 3060 1224 3060 1224 C 3060 1224 2652 1224 2652 1224 C 2652 1224 2652 408 2652 408 Z " transform="matrix(1.333328 0.000000 0.000000 1.333328 272.00 272.00)" style="fill:#000000;stroke:none" />
<path id="shape_9" d="M 1020 3672 C 1020 3672 3264 3672 3264 3672 C 3264 3672 3468 4080 3468 4080 C 3468 4080 816 4080 816 4080 C 816 4080 1020 3672 1020 3672 Z " transform="matrix(1.333328 0.000000 0.000000 1.333328 272.00 272.00)" style="fill:#d90000;stroke:none" />
</svg>